<svg xmlns="http://www.w3.org/2000/svg" viewBox="0 0 26 27.5" enable-background="new 0 0 26 22" x="0px" y="0px"><path d="m11.2 10.8v8.9c0 .9.8 1.7 1.7 1.7s1.7-.8 1.7-1.7v-9.1l4.1 4.2c.7.7 1.8.7 2.4 0 .7-.7.7-1.8 0-2.5l-6.9-7c-.7-.7-1.8-.7-2.4 0l-7.1 7.1c-.7.7-.7 1.8 0 2.4.7.7 1.7.7 2.4 0l4.1-4m12.3-10.7c.9 0 1.7.8 1.7 1.7s-.8 1.7-1.7 1.7h-21c-.9 0-1.7-.8-1.7-1.7s.8-1.7 1.7-1.7h21"/><text x="0" y="37" fill="#000000" font-size="5px" font-weight="bold" font-family="'Helvetica Neue', Helvetica, Arial-Unicode, Arial, Sans-serif">Created by James Kocsis</text><text x="0" y="42" fill="#000000" font-size="5px" font-weight="bold" font-family="'Helvetica Neue', Helvetica, Arial-Unicode, Arial, Sans-serif">from the Noun Project</text></svg>